<svg xmlns="http://www.w3.org/2000/svg" viewBox="0 0 640 512"><!--! Font Awesome Pro 6.4.0 by @fontawesome - https://fontawesome.com License - https://fontawesome.com/license (Commercial License) Copyright 2023 Fonticons, Inc. --><path d="M392.8 1.2c-17-5.5-35.3 3.6-40.8 20.6l-128 400c-5.5 17 3.6 35.3 20.6 40.8s35.3-3.6 40.8-20.6l128-400c5.5-17-3.6-35.3-20.6-40.8zm-236 120.7c-17-5.5-35.3 3.6-40.8 20.6l-64 200 64 200c5.5 17 23.8 26.1 40.8 20.6s26.1-23.8 20.6-40.8l-53.2-166.4 53.2-166.4c5.5-17-3.6-35.3-20.6-40.8zm487.2 20.6c-5.5-17-23.8-26.1-40.8-20.6s-26.1 23.8-20.6 40.8l53.2 166.4-53.2 166.4c-5.5 17 3.6 35.3 20.6 40.8s35.3-3.6 40.8-20.6l64-200-64-200z" fill="#6366f1"/></svg>
